<svg xmlns="http://www.w3.org/2000/svg" viewBox="0 0 109.06 21.15"><defs><style>.cls-1{fill:#006837;}.cls-1,.cls-6{stroke:#006837;}.cls-1,.cls-2,.cls-4,.cls-5,.cls-6{stroke-miterlimit:10;}.cls-2,.cls-6{fill:none;}.cls-2,.cls-4{stroke:#000;}.cls-3,.cls-4{fill:red;}.cls-5{fill:#754c24;stroke:#fcee21;}.cls-7{font-size:10.12px;fill:#fcee21;font-family:MyriadPro-Regular, Myriad Pro;}.cls-8{letter-spacing:-0.02em;}</style></defs><g id="Layer_2" data-name="Layer 2"><polygon class="cls-1" points="17.92 15.58 9.21 20.58 0.5 15.58 0.5 5.58 9.21 0.58 17.92 5.58 17.92 15.58"/><polygon class="cls-1" points="108.56 15.58 99.85 20.58 91.14 15.58 91.14 5.58 99.85 0.58 108.56 5.58 108.56 15.58"/></g><g id="Layer_1" data-name="Layer 1"><path class="cls-2" d="M5.5,100.5" transform="translate(-17.79 -50.92)"/><path class="cls-3" d="M5.5,100.5" transform="translate(-17.79 -50.92)"/><path class="cls-4" d="M5.5,100.5" transform="translate(-17.79 -50.92)"/><path class="cls-4" d="M5.5,44.5" transform="translate(-17.79 -50.92)"/><rect class="cls-1" x="9.71" y="0.58" width="90" height="20"/><rect class="cls-5" x="13.71" y="3.58" width="83" height="14"/><path class="cls-6" d="M27.5,71.5" transform="translate(-17.79 -50.92)"/><path class="cls-6" d="M27.5,50.5" transform="translate(-17.79 -50.92)"/><text class="cls-7" transform="translate(19.21 13.55) scale(2.21 1)">CHO<tspan class="cls-8" x="19.44" y="0">K</tspan><tspan x="24.75" y="0">O</tspan></text></g></svg>