<svg xmlns="http://www.w3.org/2000/svg" viewBox="0 0 102 53"><defs><style>.cls-1{fill:#fff;}.cls-2{fill:#42210b;}.cls-3{fill:#603813;}</style></defs><g id="Layer_3" data-name="Layer 3"><path d="M117.5,54c5.15,0,9.5,6.87,9.5,15s-4.35,15-9.5,15S108,77.13,108,69s4.35-15,9.5-15m0-3c-6.9,0-12.5,8.06-12.5,18s5.6,18,12.5,18S130,78.94,130,69s-5.6-18-12.5-18Z" transform="translate(-28 -45)"/></g><g id="Layer_2" data-name="Layer 2"><path class="cls-1" d="M68.5,97.5c-22.06,0-40-13.23-40-29.5a23.06,23.06,0,0,1,3.92-12.74C35.37,50.72,51,47.55,70.3,47.55c17.16,0,30.58,2.59,33.41,6.45a23.66,23.66,0,0,1,4.79,14C108.5,84.27,90.56,97.5,68.5,97.5Z" transform="translate(-28 -45)"/><path d="M70.3,48.05c17,0,30.27,2.51,33,6.24A23.18,23.18,0,0,1,108,68c0,16-17.72,29-39.5,29S29,84,29,68a22.56,22.56,0,0,1,3.84-12.47c2.82-4.33,18.57-7.48,37.46-7.48h0m0-1C53.19,47.05,35.43,49.72,32,55a23.76,23.76,0,0,0-4,13c0,16.57,18.13,30,40.5,30S109,84.57,109,68a24,24,0,0,0-4.89-14.3c-3.26-4.45-18.27-6.65-33.81-6.65Z" transform="translate(-28 -45)"/></g><g id="Layer_1" data-name="Layer 1"><path class="cls-2" d="M68.5,67C47.58,67,33,61.47,33,56.5a3.26,3.26,0,0,1,.52-1.68c3.11-5,18.14-8.82,35-8.82,19.8,0,33.49,4.81,35.3,9.45a3,3,0,0,1,.2,1C104,61.47,89.42,67,68.5,67Z" transform="translate(-28 -45)"/><path class="cls-3" d="M68.5,47c19.11,0,32.72,4.57,34.36,8.81a1.74,1.74,0,0,1,.14.69c0,4-13.12,9.5-34.5,9.5S34,60.47,34,56.5a2.22,2.22,0,0,1,.37-1.16c2.54-4.1,16-8.34,34.13-8.34m0-2c-17.76,0-32.56,4-35.83,9.29A4.19,4.19,0,0,0,32,56.5C32,62.85,48.34,68,68.5,68S105,62.85,105,56.5a3.84,3.84,0,0,0-.27-1.41C102.52,49.4,87.14,45,68.5,45Z" transform="translate(-28 -45)"/></g></svg>