<svg id="Layer_1" data-name="Layer 1" xmlns="http://www.w3.org/2000/svg" viewBox="0 0 26 26"><defs><style>.cls-1{fill:#fff;}.cls-2{fill:none;stroke:#000;stroke-miterlimit:10;}.cls-3{font-size:7.8px;font-family:MyriadPro-Regular, Myriad Pro;}</style></defs><path class="cls-1" d="M75,86a11,11,0,1,1,7.29-2.76A11,11,0,0,1,75,86Z" transform="translate(-62 -62)"/><path d="M75,66h0a9,9,0,1,1-6,2.26A9,9,0,0,1,75,66m0-4a13,13,0,1,0,9.74,4.39A13,13,0,0,0,75,62Z" transform="translate(-62 -62)"/><path class="cls-1" d="M74.43,76a.5.5,0,0,1-.37-.13.49.49,0,0,1-.08-.38,1,1,0,0,1,.38-.68,1.12,1.12,0,0,1,.72-.3.41.41,0,0,1,.46.51,1.21,1.21,0,0,1-1.11,1Z" transform="translate(-62 -62)"/><path d="M75.08,72.47a3.09,3.09,0,0,0-2,.8,2.76,2.76,0,0,0-.46,3.88,2.43,2.43,0,0,0,1.86.81,3.07,3.07,0,0,0,2-.8A2.77,2.77,0,0,0,77,73.28a2.47,2.47,0,0,0-1.87-.81Z" transform="translate(-62 -62)"/><line class="cls-2" x1="20.79" y1="6.11" x2="14.26" y2="14.92"/><line class="cls-2" x1="11.25" y1="11.51" x2="20.82" y2="5.65"/><text class="cls-3" transform="matrix(0.66, 0.75, -0.75, 0.66, 14.08, 17.6)">ø</text></svg>