<svg id="Layer_1" data-name="Layer 1" xmlns="http://www.w3.org/2000/svg" viewBox="0 0 145.69 26"><defs><style>.cls-1{fill:#fff;}.cls-2{fill:none;stroke:#000;stroke-miterlimit:10;}.cls-3{font-size:7.8px;font-family:MyriadPro-Regular, Myriad Pro;}</style></defs><path class="cls-1" d="M14,83a11,11,0,1,1,7.29-2.76A11,11,0,0,1,14,83Z" transform="translate(-1 -59)"/><path d="M14,63h0a9,9,0,1,1-6,2.26A9,9,0,0,1,14,63m0-4a13,13,0,1,0,9.74,4.39A13,13,0,0,0,14,59Z" transform="translate(-1 -59)"/><path class="cls-1" d="M13.43,73a.5.5,0,0,1-.37-.13.49.49,0,0,1-.08-.38,1,1,0,0,1,.38-.68,1.12,1.12,0,0,1,.72-.3.41.41,0,0,1,.46.51,1.21,1.21,0,0,1-1.11,1Z" transform="translate(-1 -59)"/><path d="M14.08,69.47a3.09,3.09,0,0,0-2.05.8,2.76,2.76,0,0,0-.46,3.88,2.43,2.43,0,0,0,1.86.81,3.07,3.07,0,0,0,2.05-.8A2.77,2.77,0,0,0,16,70.28a2.47,2.47,0,0,0-1.87-.81Z" transform="translate(-1 -59)"/><line class="cls-2" x1="20.79" y1="6.11" x2="14.26" y2="14.92"/><line class="cls-2" x1="11.25" y1="11.51" x2="20.82" y2="5.65"/><text class="cls-3" transform="matrix(0.66, 0.75, -0.75, 0.66, 14.1, 17.59)">ø</text><path d="M30.05,82.49A6.11,6.11,0,0,1,28.58,82a5.82,5.82,0,0,1-1.26-.88l1.18-1.46a6.69,6.69,0,0,0,1.63.94,4.41,4.41,0,0,0,1.6.31,3.51,3.51,0,0,0,1.78-.36,1.22,1.22,0,0,0,.59-1.1.84.84,0,0,0-.33-.73,1.66,1.66,0,0,0-.8-.33,11.89,11.89,0,0,0-1.34-.15h-.49a8.31,8.31,0,0,1-1.67-.29,2.22,2.22,0,0,1-1.14-.79,2.62,2.62,0,0,1-.45-1.65,3.26,3.26,0,0,1,.44-1.78,2.57,2.57,0,0,1,1.3-1.07,5.74,5.74,0,0,1,2.18-.36,7.36,7.36,0,0,1,1.51.15,6.25,6.25,0,0,1,1.37.43,6.65,6.65,0,0,1,1.26.73L34.74,75a6.88,6.88,0,0,0-1.5-.73A4.62,4.62,0,0,0,31.8,74a2.72,2.72,0,0,0-1.52.34,1.18,1.18,0,0,0-.51,1,.72.72,0,0,0,.29.62,1.55,1.55,0,0,0,.73.27,11.75,11.75,0,0,0,1.25.12h.37a8.51,8.51,0,0,1,1.81.28,2.45,2.45,0,0,1,1.25.85A2.9,2.9,0,0,1,36,79.42a3.19,3.19,0,0,1-.47,1.81,2.8,2.8,0,0,1-1.41,1.08,6.72,6.72,0,0,1-2.37.36A7.46,7.46,0,0,1,30.05,82.49Z" transform="translate(-1 -59)"/><path d="M37.74,72.39h4.57v1.79H37.74Zm1.62,9.5a3,3,0,0,1-.58-2V69.44h2V79.91a1,1,0,0,0,.14.57.51.51,0,0,0,.43.2h1v1.89H41.16A2.2,2.2,0,0,1,39.36,81.89Z" transform="translate(-1 -59)"/><path d="M49.63,72.39H54.7v1.7H49.63ZM50.71,71a2.91,2.91,0,0,1,.62-2,2.5,2.5,0,0,1,1.91-.67H54.7v1.9H53.28a.49.49,0,0,0-.43.21,1,1,0,0,0-.15.56V82.52h-2Z" transform="translate(-1 -59)"/><path d="M58.09,82.15a3.43,3.43,0,0,1-1.43-1.51,5.26,5.26,0,0,1-.49-2.38V76.61a5.18,5.18,0,0,1,.49-2.36,3.4,3.4,0,0,1,1.43-1.5,4.69,4.69,0,0,1,2.26-.51,4.62,4.62,0,0,1,2.25.51A3.3,3.3,0,0,1,64,74.25a5.17,5.17,0,0,1,.5,2.36v1.68a5.17,5.17,0,0,1-.5,2.36,3.3,3.3,0,0,1-1.43,1.5,4.51,4.51,0,0,1-2.25.52A4.58,4.58,0,0,1,58.09,82.15Zm3.87-2a2.69,2.69,0,0,0,.58-1.83V76.61A2.68,2.68,0,0,0,62,74.78a2.33,2.33,0,0,0-3.23,0,2.67,2.67,0,0,0-.57,1.83v1.68a2.69,2.69,0,0,0,.57,1.83,2.31,2.31,0,0,0,3.23,0Z" transform="translate(-1 -59)"/><path d="M67.36,72.39h2V82.52h-2Zm4.91,1.91a2.41,2.41,0,0,0-.93-.17,1.82,1.82,0,0,0-2,2l-.2-2a3.73,3.73,0,0,1,1.21-1.41,2.88,2.88,0,0,1,1.64-.5,3.77,3.77,0,0,1,1.25.2,2.71,2.71,0,0,1,1,.59l-1.29,1.76A1.64,1.64,0,0,0,72.27,74.3Z" transform="translate(-1 -59)"/><path d="M81.46,68.32h2v14.2h-2Zm1,6.8H87a2.12,2.12,0,0,0,1.13-.3,2,2,0,0,0,.76-.86,3.19,3.19,0,0,0,0-2.57,2,2,0,0,0-.76-.86A2,2,0,0,0,87,70.22H82.49v-1.9H87a4.43,4.43,0,0,1,2.24.55,3.76,3.76,0,0,1,1.49,1.52,4.7,4.7,0,0,1,.54,2.29A4.63,4.63,0,0,1,90.69,75a3.76,3.76,0,0,1-1.49,1.52A4.53,4.53,0,0,1,87,77H82.49Z" transform="translate(-1 -59)"/><path d="M93.67,81.89a2.88,2.88,0,0,1-.93-2.35,2.84,2.84,0,0,1,.85-2.26,3.79,3.79,0,0,1,2.57-.75H99l.14,1.6h-3a1.67,1.67,0,0,0-1.17.35,1.59,1.59,0,0,0,.13,2.2,2.64,2.64,0,0,0,1.56.37,4.31,4.31,0,0,0,1.7-.25A.8.8,0,0,0,99,80l.21,1.43a2.44,2.44,0,0,1-.65.67,2.84,2.84,0,0,1-.9.4,4.47,4.47,0,0,1-1.14.13A4.27,4.27,0,0,1,93.67,81.89ZM99,76.1a2.16,2.16,0,0,0-.53-1.55A2,2,0,0,0,96.91,74a4,4,0,0,0-1.19.18,3.83,3.83,0,0,0-1,.52l-1.45-1a3.63,3.63,0,0,1,1.52-1.08,5.37,5.37,0,0,1,2.09-.39,4.92,4.92,0,0,1,2.16.44A3.17,3.17,0,0,1,100.38,74a4.21,4.21,0,0,1,.47,2v6.51H99Z" transform="translate(-1 -59)"/><path d="M103.87,72.39h2V82.52h-2Zm4.92,1.91a2.45,2.45,0,0,0-.93-.17,2,2,0,0,0-1.47.53,2,2,0,0,0-.52,1.45l-.21-2a3.82,3.82,0,0,1,1.21-1.41,2.91,2.91,0,0,1,1.64-.5,3.87,3.87,0,0,1,1.26.2,2.79,2.79,0,0,1,1,.59l-1.3,1.76A1.68,1.68,0,0,0,108.79,74.3Z" transform="translate(-1 -59)"/><path d="M112.85,81.89a2.88,2.88,0,0,1-.93-2.35,2.84,2.84,0,0,1,.85-2.26,3.79,3.79,0,0,1,2.57-.75h2.88l.14,1.6h-3a1.67,1.67,0,0,0-1.17.35,1.57,1.57,0,0,0,.13,2.2,2.64,2.64,0,0,0,1.56.37,4.31,4.31,0,0,0,1.7-.25.8.8,0,0,0,.56-.76l.21,1.43a2.44,2.44,0,0,1-.65.67,2.84,2.84,0,0,1-.9.4,4.47,4.47,0,0,1-1.14.13A4.27,4.27,0,0,1,112.85,81.89Zm5.28-5.79a2.16,2.16,0,0,0-.53-1.55,2,2,0,0,0-1.51-.55,4,4,0,0,0-1.19.18,3.83,3.83,0,0,0-1,.52l-1.45-1a3.63,3.63,0,0,1,1.52-1.08,5.37,5.37,0,0,1,2.09-.39,4.92,4.92,0,0,1,2.16.44A3.17,3.17,0,0,1,119.56,74a4.21,4.21,0,0,1,.47,2v6.51h-1.9Z" transform="translate(-1 -59)"/><path d="M124.37,82.22a3.06,3.06,0,0,1-1.2-1.42,5.5,5.5,0,0,1-.41-2.22V76.34a5.52,5.52,0,0,1,.4-2.23,3.12,3.12,0,0,1,1.17-1.42,3.38,3.38,0,0,1,1.84-.48,3,3,0,0,1,1.64.47A3.44,3.44,0,0,1,129,74l-.21,2.07a2.39,2.39,0,0,0-.23-1.11,1.62,1.62,0,0,0-.68-.69,2.21,2.21,0,0,0-1.08-.24,2,2,0,0,0-1.53.61,2.54,2.54,0,0,0-.54,1.73v2.21a2.46,2.46,0,0,0,.54,1.7,2,2,0,0,0,1.53.6,2.11,2.11,0,0,0,1.08-.25,1.61,1.61,0,0,0,.68-.71,2.48,2.48,0,0,0,.23-1.13l.14,2.14a2.88,2.88,0,0,1-1,1.26,2.76,2.76,0,0,1-1.69.51A3.55,3.55,0,0,1,124.37,82.22Zm4.44-13.9h2v14.2h-2Z" transform="translate(-1 -59)"/><path d="M133.83,68.32h2v2h-2Zm0,4.07h2V82.52h-2Z" transform="translate(-1 -59)"/><path d="M140.75,82.49a6.11,6.11,0,0,1-1.47-.52,6.35,6.35,0,0,1-1.26-.88l1.19-1.46a6.51,6.51,0,0,0,1.63.94,4.37,4.37,0,0,0,1.6.31,3.44,3.44,0,0,0,1.77-.36,1.22,1.22,0,0,0,.59-1.1.86.86,0,0,0-.32-.73,1.7,1.7,0,0,0-.8-.33,12.41,12.41,0,0,0-1.35-.15h-.49a8.44,8.44,0,0,1-1.67-.29A2.3,2.3,0,0,1,139,77.1a2.62,2.62,0,0,1-.45-1.65,3.35,3.35,0,0,1,.44-1.78,2.6,2.6,0,0,1,1.31-1.07,5.71,5.71,0,0,1,2.18-.36,7.27,7.27,0,0,1,1.5.15,6.51,6.51,0,0,1,1.38.43,7.34,7.34,0,0,1,1.26.73L145.45,75a6.88,6.88,0,0,0-1.5-.73,4.67,4.67,0,0,0-1.44-.24,2.75,2.75,0,0,0-1.53.34,1.18,1.18,0,0,0-.51,1,.72.72,0,0,0,.29.62,1.64,1.64,0,0,0,.73.27,11.75,11.75,0,0,0,1.25.12h.37a8.51,8.51,0,0,1,1.81.28,2.52,2.52,0,0,1,1.26.85,2.9,2.9,0,0,1,.51,1.84,3.27,3.27,0,0,1-.47,1.81,2.89,2.89,0,0,1-1.41,1.08,6.72,6.72,0,0,1-2.37.36A7.62,7.62,0,0,1,140.75,82.49Z" transform="translate(-1 -59)"/></svg>